<svg width="33" height="32" viewBox="0 0 33 32" fill="none" xmlns="http://www.w3.org/2000/svg">
<g id="Window Bullet List" clip-path="url(#clip0_142_18811)">
<path id="Shape" d="M5.89266 13.9655C5.7723 14.2472 5.7116 14.5507 5.71438 14.857C5.72124 15.1697 5.78154 15.4789 5.89266 15.7713C5.99782 16.0415 6.16268 16.2845 6.37495 16.4821C6.5888 16.6843 6.83633 16.8475 7.10638 16.9644C7.38876 17.0849 7.69307 17.1457 8.00009 17.1427C8.30805 17.1567 8.61478 17.0955 8.89381 16.9644C9.16579 16.843 9.41359 16.6734 9.62523 16.4638C9.82972 16.2588 9.99338 16.0168 10.1075 15.7507C10.2281 15.4683 10.2888 15.164 10.2858 14.857C10.2863 14.5509 10.2257 14.2479 10.1075 13.9655C9.99444 13.6883 9.82382 13.4382 9.60695 13.2318C9.3923 13.0307 9.14495 12.8676 8.87552 12.7495C8.59914 12.6303 8.30108 12.5696 8.00009 12.5713C7.69176 12.5617 7.38552 12.6251 7.10638 12.7564C6.8353 12.8794 6.58777 13.0488 6.37495 13.257C6.17157 13.4612 6.00802 13.7015 5.89266 13.9655ZM5.89266 23.1084C5.7723 23.39 5.7116 23.6936 5.71438 23.9998C5.7215 24.3118 5.7818 24.6202 5.89266 24.9118C5.99751 25.1829 6.1624 25.4267 6.37495 25.625C6.5888 25.8271 6.83633 25.9903 7.10638 26.1073C7.38876 26.2278 7.69307 26.2885 8.00009 26.2855C8.30805 26.2995 8.61478 26.2383 8.89381 26.1073C9.16516 25.9857 9.41281 25.817 9.62523 25.609C9.82932 25.4028 9.99291 25.1601 10.1075 24.8935C10.2281 24.6112 10.2888 24.3069 10.2858 23.9998C10.2863 23.6938 10.2257 23.3907 10.1075 23.1084C9.99444 22.8312 9.82382 22.5811 9.60695 22.3747C9.3928 22.1735 9.14531 22.0111 8.87552 21.8947C8.59964 21.7737 8.30135 21.7121 8.00009 21.7141C7.69204 21.702 7.38557 21.764 7.10638 21.8947C6.83502 22.0162 6.58738 22.1849 6.37495 22.393C6.17087 22.5992 6.00728 22.8419 5.89266 23.1084ZM14.97 16.0002C14.6426 16.0056 14.3257 15.8844 14.0855 15.6619V15.6527C13.9704 15.5536 13.8781 15.4308 13.8148 15.2928C13.7515 15.1547 13.7188 15.0046 13.7188 14.8527C13.7188 14.7009 13.7515 14.5508 13.8148 14.4127C13.8781 14.2747 13.9704 14.1519 14.0855 14.0527C14.3257 13.8302 14.6426 13.709 14.97 13.7145H25.0272C25.3559 13.7115 25.6729 13.836 25.9117 14.0619C26.0268 14.161 26.1191 14.2838 26.1824 14.4219C26.2457 14.5599 26.2784 14.71 26.2784 14.8619C26.2784 15.0138 26.2457 15.1638 26.1824 15.3019C26.1191 15.44 26.0268 15.5628 25.9117 15.6619C25.6715 15.8844 25.3546 16.0056 25.0272 16.0002H14.97ZM14.0855 24.8047C14.3263 25.0262 14.6428 25.1472 14.97 25.143H25.0272C25.3544 25.1472 25.6708 25.0262 25.9117 24.8047C26.0268 24.7055 26.1191 24.5828 26.1824 24.4447C26.2457 24.3066 26.2784 24.1566 26.2784 24.0047C26.2784 23.8528 26.2457 23.7027 26.1824 23.5647C26.1191 23.4266 26.0268 23.3038 25.9117 23.2047C25.6723 22.9798 25.3556 22.8555 25.0272 22.8573H14.97C14.6428 22.853 14.3263 22.974 14.0855 23.1955C13.9704 23.2947 13.8781 23.4175 13.8148 23.5555C13.7515 23.6936 13.7188 23.8437 13.7188 23.9955C13.7188 24.1474 13.7515 24.2975 13.8148 24.4356C13.8781 24.5736 13.9704 24.6964 14.0855 24.7955V24.8047ZM6.85714 0C3.07005 0 0 3.07005 0 6.85714V25.1429C0 28.93 3.07005 32 6.85714 32H25.1429C28.93 32 32 28.93 32 25.1429V6.85714C32 3.07005 28.93 0 25.1429 0H6.85714ZM2.28571 25.1429V9.14286H29.7143V25.1429C29.7143 27.6676 27.6676 29.7143 25.1429 29.7143H6.85714C4.33241 29.7143 2.28571 27.6676 2.28571 25.1429Z" fill="#FFC114"/>
</g>
<defs>
<clipPath id="clip0_142_18811">
<rect width="32" height="32" fill="white" transform="translate(0.299805)"/>
</clipPath>
</defs>
</svg>
