<svg width="33" height="32" viewBox="0 0 33 32" fill="none" xmlns="http://www.w3.org/2000/svg">
<path d="M16 32C24.8366 32 32 24.8366 32 16C32 7.16345 24.8366 0 16 0C7.16345 0 0 7.16344 0 16C0 24.8366 7.16344 32 16 32ZM14 20.4142L10.7071 23.7071C10.3166 24.0976 9.68342 24.0976 9.29289 23.7071L6 20.4142C5.60948 20.0237 5.60948 19.3905 6 19C6.39053 18.6095 7.02369 18.6095 7.41421 19L9 20.5858L9 9C9 8.44771 9.44771 8 10 8C10.5523 8 11 8.44772 11 9L11 20.5858L12.5858 19C12.9763 18.6095 13.6095 18.6095 14 19C14.3905 19.3905 14.3905 20.0237 14 20.4142ZM25.9999 11.5858C26.3904 11.9763 26.3904 12.6095 25.9999 13C25.6094 13.3905 24.9762 13.3905 24.5857 13L22.9999 11.4142L22.9999 23C22.9999 23.5523 22.5522 24 21.9999 24C21.4476 24 20.9999 23.5523 20.9999 23L20.9999 11.4142L19.4141 13C19.0236 13.3905 18.3904 13.3905 17.9999 13C17.6094 12.6095 17.6094 11.9763 17.9999 11.5858L21.2928 8.29289C21.6833 7.90237 22.3165 7.90237 22.707 8.29289L25.9999 11.5858Z" fill="#FFC114"/>
</svg>
