<svg width="33" height="32" viewBox="0 0 33 32" fill="none" xmlns="http://www.w3.org/2000/svg">
<g id="Data Pie" clip-path="url(#clip0_142_18314)">
<path id="Shape" d="M14.2683 3.90244C14.9149 3.90244 15.439 4.42659 15.439 5.07317V17.561H27.9268C28.5195 17.561 29.0093 18.0014 29.0869 18.5728L29.0976 18.7317C29.0976 26.4906 22.8077 32 15.0488 32C7.28985 32 1 25.7101 1 17.9512C1 10.1923 6.50937 3.90244 14.2683 3.90244ZM18.9512 0C26.7101 0 33 6.28985 33 14.0488C33 14.6954 32.4758 15.2195 31.8293 15.2195H18.9512C18.3046 15.2195 17.7805 14.6954 17.7805 14.0488V1.17073C17.7805 0.524154 18.3046 0 18.9512 0Z" fill="#FFC114"/>
</g>
<defs>
<clipPath id="clip0_142_18314">
<rect width="32" height="32" fill="white" transform="translate(0.699707)"/>
</clipPath>
</defs>
</svg>
