<svg width="33" height="32" viewBox="0 0 33 32" fill="none" xmlns="http://www.w3.org/2000/svg">
<g id="Data Trending">
<path id="Shape" d="M4.8999 3C5.45219 3 5.8999 3.44772 5.8999 4V24.5C5.8999 25.8807 7.01919 27 8.3999 27H28.8999C29.4522 27 29.8999 27.4477 29.8999 28C29.8999 28.5523 29.4522 29 28.8999 29H8.3999C5.91462 29 3.8999 26.9853 3.8999 24.5V4C3.8999 3.44772 4.34762 3 4.8999 3ZM19.896 7.75C19.896 7.05964 20.4556 6.5 21.146 6.5H28.146C28.8364 6.5 29.396 7.05964 29.396 7.75V14.75C29.396 15.4404 28.8364 16 28.146 16C27.4556 16 26.896 15.4404 26.896 14.75V10.7717L20.2838 17.3839C19.7956 17.872 19.0042 17.872 18.516 17.3839L15.3999 14.2678L10.0338 19.6339C9.54563 20.122 8.75417 20.122 8.26602 19.6339C7.77786 19.1457 7.77786 18.3543 8.26602 17.8661L14.516 11.6161C15.0042 11.128 15.7956 11.128 16.2838 11.6161L19.3999 14.7322L25.1321 9H21.146C20.4556 9 19.896 8.44036 19.896 7.75Z" fill="#FFC114"/>
</g>
</svg>
