<svg width="25" height="24" viewBox="0 0 25 24" fill="none" xmlns="http://www.w3.org/2000/svg">
<g id="Arrow Circle Down Up">
<path id="Shape" d="M9.85355 15.8536L11.5 14.2071C11.6953 14.0118 11.6953 13.6953 11.5 13.5C11.3047 13.3047 10.9882 13.3047 10.7929 13.5L10 14.2929L10 8.5C10 8.22386 9.77614 8 9.5 8C9.22386 8 9 8.22386 9 8.5L9 14.2929L8.20711 13.5C8.01185 13.3047 7.69526 13.3047 7.5 13.5C7.30474 13.6953 7.30474 14.0118 7.5 14.2071L9.14645 15.8536C9.34171 16.0488 9.65829 16.0488 9.85355 15.8536ZM17.5 9.79289L15.8535 8.14645C15.6583 7.95118 15.3417 7.95118 15.1464 8.14645L13.5 9.79289C13.3047 9.98816 13.3047 10.3047 13.5 10.5C13.6952 10.6953 14.0118 10.6953 14.2071 10.5L15 9.70711L15 15.5C15 15.7761 15.2238 16 15.5 16C15.7761 16 16 15.7761 16 15.5L16 9.70711L16.7929 10.5C16.9881 10.6953 17.3047 10.6953 17.5 10.5C17.6952 10.3047 17.6952 9.98815 17.5 9.79289ZM20.5 12C20.5 16.4183 16.9183 20 12.5 20C8.08172 20 4.5 16.4183 4.5 12C4.5 7.58172 8.08172 4 12.5 4C16.9183 4 20.5 7.58172 20.5 12ZM12.5 19C16.366 19 19.5 15.866 19.5 12C19.5 8.13401 16.366 5 12.5 5C8.63401 5 5.5 8.13401 5.5 12C5.5 15.866 8.63401 19 12.5 19Z" fill="#ADADAD"/>
</g>
</svg>
