<svg width="25" height="24" viewBox="0 0 25 24" fill="none" xmlns="http://www.w3.org/2000/svg">
<g id="Data Pie">
<path id="Shape" d="M11.6997 14C11.1474 14 10.6997 13.5523 10.6997 13V7.08277C7.8623 7.55825 5.69971 10.0274 5.69971 13C5.69971 16.3137 8.386 19 11.6997 19C14.6723 19 17.1414 16.8374 17.6169 14H11.6997ZM10.7027 6.07044C11.2494 5.99247 11.6997 6.44769 11.6997 6.99997V13H17.6997C18.252 13 18.7072 13.4502 18.6292 13.997C18.1453 17.3907 15.2272 20 11.6997 20C7.83371 20 4.69971 16.866 4.69971 13C4.69971 9.47247 7.30893 6.55439 10.7027 6.07044ZM13.6997 11V5C17.0134 5 19.6997 7.68629 19.6997 11H13.6997ZM19.7617 12C20.2593 12 20.6889 11.6337 20.6984 11.1362C20.6993 11.0909 20.6997 11.0455 20.6997 11C20.6997 7.13401 17.5657 4 13.6997 4C13.6542 4 13.6088 4.00043 13.5635 4.0013C13.066 4.01079 12.6997 4.44045 12.6997 4.93803V11C12.6997 11.5523 13.1474 12 13.6997 12H19.7617Z" fill="#ADADAD"/>
</g>
</svg>
