<svg width="25" height="24" viewBox="0 0 25 24" fill="none" xmlns="http://www.w3.org/2000/svg">
<g id="Window Bullet List">
<path id="Shape" d="M7.87784 11.1099C7.82519 11.2331 7.79863 11.3659 7.79984 11.4999C7.80285 11.6367 7.82923 11.772 7.87784 11.8999C7.92385 12.0182 7.99598 12.1245 8.08884 12.2109C8.18241 12.2994 8.2907 12.3708 8.40884 12.4219C8.53239 12.4747 8.66552 12.5012 8.79984 12.4999C8.93458 12.506 9.06877 12.4793 9.19084 12.4219C9.30984 12.3688 9.41825 12.2946 9.51084 12.2029C9.60031 12.1132 9.67191 12.0074 9.72184 11.8909C9.77458 11.7674 9.80114 11.6342 9.79984 11.4999C9.80006 11.366 9.77354 11.2334 9.72184 11.1099C9.67237 10.9886 9.59773 10.8792 9.50284 10.7889C9.40894 10.7009 9.30072 10.6296 9.18284 10.5779C9.06193 10.5258 8.93153 10.4992 8.79984 10.4999C8.66495 10.4957 8.53097 10.5235 8.40884 10.5809C8.29025 10.6347 8.18195 10.7089 8.08884 10.7999C7.99987 10.8893 7.92831 10.9944 7.87784 11.1099ZM7.87784 15.1099C7.82519 15.2331 7.79863 15.3659 7.79984 15.4999C7.80296 15.6364 7.82934 15.7713 7.87784 15.8989C7.92372 16.0175 7.99585 16.1242 8.08884 16.2109C8.18241 16.2994 8.2907 16.3708 8.40884 16.4219C8.53239 16.4747 8.66552 16.5012 8.79984 16.4999C8.93458 16.506 9.06877 16.4793 9.19084 16.4219C9.30956 16.3688 9.41791 16.2949 9.51084 16.2039C9.60013 16.1137 9.6717 16.0075 9.72184 15.8909C9.77458 15.7674 9.80114 15.6342 9.79984 15.4999C9.80006 15.366 9.77354 15.2334 9.72184 15.1099C9.67237 14.9886 9.59773 14.8792 9.50284 14.7889C9.40916 14.7009 9.30088 14.6299 9.18284 14.5789C9.06215 14.526 8.93164 14.4991 8.79984 14.4999C8.66507 14.4946 8.53099 14.5217 8.40884 14.5789C8.29013 14.6321 8.18178 14.7059 8.08884 14.7969C7.99956 14.8871 7.92799 14.9933 7.87784 15.1099ZM11.8492 12.0001C11.7059 12.0024 11.5673 11.9494 11.4622 11.8521V11.8481C11.4119 11.8047 11.3715 11.751 11.3438 11.6906C11.3161 11.6302 11.3018 11.5645 11.3018 11.4981C11.3018 11.4316 11.3161 11.366 11.3438 11.3056C11.3715 11.2452 11.4119 11.1914 11.4622 11.1481C11.5673 11.0507 11.7059 10.9977 11.8492 11.0001H16.2492C16.393 10.9988 16.5317 11.0533 16.6362 11.1521C16.6865 11.1954 16.7269 11.2492 16.7546 11.3096C16.7823 11.37 16.7966 11.4356 16.7966 11.5021C16.7966 11.5685 16.7823 11.6342 16.7546 11.6946C16.7269 11.755 16.6865 11.8087 16.6362 11.8521C16.5311 11.9494 16.3924 12.0024 16.2492 12.0001H11.8492ZM11.4622 15.852C11.5676 15.949 11.706 16.0019 11.8492 16H16.2492C16.3923 16.0019 16.5308 15.949 16.6362 15.852C16.6865 15.8087 16.7269 15.755 16.7546 15.6946C16.7823 15.6342 16.7966 15.5685 16.7966 15.502C16.7966 15.4356 16.7823 15.3699 16.7546 15.3095C16.7269 15.2491 16.6865 15.1954 16.6362 15.152C16.5314 15.0537 16.3929 14.9993 16.2492 15H11.8492C11.706 14.9982 11.5676 15.0511 11.4622 15.148C11.4119 15.1914 11.3715 15.2451 11.3438 15.3055C11.3161 15.3659 11.3018 15.4316 11.3018 15.498C11.3018 15.5645 11.3161 15.6302 11.3438 15.6906C11.3715 15.751 11.4119 15.8047 11.4622 15.848V15.852ZM5.2998 8C5.2998 6.34315 6.64295 5 8.2998 5H16.2998C17.9567 5 19.2998 6.34315 19.2998 8V16C19.2998 17.6569 17.9567 19 16.2998 19H8.2998C6.64295 19 5.2998 17.6569 5.2998 16V8ZM8.2998 6C7.19524 6 6.2998 6.89543 6.2998 8L18.2998 8C18.2998 6.89543 17.4044 6 16.2998 6H8.2998ZM18.2998 9H6.2998V16C6.2998 17.1046 7.19524 18 8.2998 18H16.2998C17.4044 18 18.2998 17.1046 18.2998 16V9Z" fill="#ADADAD"/>
</g>
</svg>
