<svg width="23" height="22" viewBox="0 0 23 22" fill="none" xmlns="http://www.w3.org/2000/svg">
<g id="Asset 1 1">
<g id="Layer 1">
<g id="Group">
<g id="Group_2">
<path id="Vector" d="M9.06985 15.9513C9.36564 15.5481 9.56284 15.1896 9.68833 14.867L5.81606 10.9957L7.22335 9.58872C7.07993 8.80012 7.14267 7.72475 7.78805 6.36261C8.72027 4.42694 9.97517 3.27987 10.2441 3.04688C6.22839 3.47702 3.1001 6.87341 3.1001 11.0046C3.1001 13.9709 4.71354 16.5518 7.10682 17.9318C7.58189 17.5644 8.42447 16.8564 9.06985 15.9513Z" fill="url(#paint0_linear_154_1552)"/>
<path id="Vector_2" d="M14.6004 3.79802C13.8026 4.49702 12.7808 5.79642 12.3774 7.05103L16.3214 10.9941L14.95 12.3652C15.201 12.9118 15.2368 13.3509 15.2368 13.9065C15.2368 15.1163 14.5914 16.2723 13.7489 17.1147C12.6643 18.1991 11.6962 18.7726 11.2749 18.9966C15.6133 18.898 19.1001 15.3583 19.1001 10.9941C19.1001 7.83067 17.2626 5.08847 14.5914 3.78906L14.6004 3.79802Z" fill="url(#paint1_linear_154_1552)"/>
</g>
<path id="Vector_3" d="M7.84183 8.85653C8.00317 11.6794 10.4682 12.2798 11.1046 13.5434C11.7499 14.8248 11.3556 17.0204 9.32978 18.8127C9.79589 18.9202 10.3158 18.983 10.764 19.0009C11.6424 18.4901 12.7449 17.4774 13.5606 16.3662C14.6273 14.8965 15.183 12.934 12.0457 10.0036C9.06984 7.22555 11.6334 3.75747 12.4043 3.11225C12.1175 3.06744 11.7231 3.02263 11.3466 3.01367C11.1046 3.01367 10.8805 3.01367 10.6385 3.02263C10.3158 3.35421 7.68944 6.2129 7.84183 8.85653Z" fill="#FED301"/>
<path id="Vector_4" d="M10.755 19C10.755 19 14.8335 16.0786 12.6195 12.8435C10.4144 9.60841 7.06205 9.76972 10.6385 3.01279C10.6385 3.01279 11.4901 2.95006 12.3954 3.10241C12.3954 3.10241 9.66149 5.65642 11.0419 8.68538C11.6245 9.95791 14.5018 11.6247 14.3943 14.3311C14.2957 16.8761 11.2749 18.7491 10.755 18.991V19Z" fill="#FAB816"/>
<path id="Vector_5" d="M10.2441 17.0817C11.0329 15.8181 11.1315 14.5456 10.7192 13.7212C10.6206 13.524 10.4503 13.3358 10.2441 13.1387C11.3377 14.5277 9.02507 16.786 7.41162 18.1033C7.85084 18.3363 8.33487 18.5245 8.80994 18.6679C9.37465 18.175 9.86764 17.6284 10.2441 17.0727V17.0817Z" fill="#FED301"/>
<path id="Vector_6" d="M12.8346 3.28148C12.6463 3.46071 12.485 3.63994 12.3236 3.81917C12.0996 4.08801 11.8127 4.49127 11.5617 4.98415C10.9522 6.20291 10.9074 7.39478 11.4183 8.52392C11.499 8.70315 11.6603 8.91822 11.8486 9.14226C10.8447 7.0184 13.1035 4.787 14.2508 3.65786C13.9729 3.5324 13.3813 3.30836 12.8973 3.21875L12.8166 3.29044L12.8346 3.28148Z" fill="#FAB816"/>
</g>
</g>
</g>
<defs>
<linearGradient id="paint0_linear_154_1552" x1="6.67657" y1="3.75483" x2="6.67657" y2="16.1037" gradientUnits="userSpaceOnUse">
<stop stop-color="#38C6F4"/>
<stop offset="0.15" stop-color="#319FDA"/>
<stop offset="0.31" stop-color="#2A7DC3"/>
<stop offset="0.48" stop-color="#2663B1"/>
<stop offset="0.64" stop-color="#2250A4"/>
<stop offset="0.82" stop-color="#20449C"/>
<stop offset="1" stop-color="#20419A"/>
</linearGradient>
<linearGradient id="paint1_linear_154_1552" x1="15.201" y1="18.6113" x2="15.201" y2="8.00094" gradientUnits="userSpaceOnUse">
<stop stop-color="#38C6F4"/>
<stop offset="0.15" stop-color="#319FDA"/>
<stop offset="0.31" stop-color="#2A7DC3"/>
<stop offset="0.48" stop-color="#2663B1"/>
<stop offset="0.64" stop-color="#2250A4"/>
<stop offset="0.82" stop-color="#20449C"/>
<stop offset="1" stop-color="#20419A"/>
</linearGradient>
</defs>
</svg>
