<svg width="25" height="24" viewBox="0 0 25 24" fill="none" xmlns="http://www.w3.org/2000/svg">
<g id="Data Trending">
<path id="Shape" d="M6.8999 5.5C6.8999 5.22386 6.67604 5 6.3999 5C6.12376 5 5.8999 5.22386 5.8999 5.5V16.5C5.8999 17.8807 7.01919 19 8.3999 19H19.3999C19.676 19 19.8999 18.7761 19.8999 18.5C19.8999 18.2239 19.676 18 19.3999 18H8.3999C7.57148 18 6.8999 17.3284 6.8999 16.5V5.5ZM15.3999 7C15.1238 7 14.8999 7.22386 14.8999 7.5C14.8999 7.77614 15.1238 8 15.3999 8H18.1928L13.8999 12.2929L12.2535 10.6464C12.1597 10.5527 12.0325 10.5 11.8999 10.5C11.7673 10.5 11.6401 10.5527 11.5463 10.6464L8.04635 14.1464C7.85109 14.3417 7.85109 14.6583 8.04635 14.8536C8.24161 15.0488 8.55819 15.0488 8.75346 14.8536L11.8999 11.7071L13.5463 13.3536C13.6401 13.4473 13.7673 13.5 13.8999 13.5C14.0325 13.5 14.1597 13.4473 14.2534 13.3536L18.8999 8.70708V11.5C18.8999 11.7761 19.1238 12 19.3999 12C19.676 12 19.8999 11.7761 19.8999 11.5V7.5C19.8999 7.22386 19.676 7 19.3999 7H15.3999Z" fill="#ADADAD"/>
</g>
</svg>
