<svg width="41" height="40" viewBox="0 0 41 40" fill="none" xmlns="http://www.w3.org/2000/svg">
<path d="M0.5 20C0.5 8.95431 9.45431 0 20.5 0C31.5457 0 40.5 8.95431 40.5 20C40.5 31.0457 31.5457 40 20.5 40C9.45431 40 0.5 31.0457 0.5 20Z" fill="#FFC114"/>
<path d="M14 15C14 13.6193 15.1193 12.5 16.5 12.5C17.8807 12.5 19 13.6193 19 15C19 16.3807 17.8807 17.5 16.5 17.5C15.1193 17.5 14 16.3807 14 15ZM16.5 11C14.2909 11 12.5 12.7909 12.5 15C12.5 17.2091 14.2909 19 16.5 19C18.7091 19 20.5 17.2091 20.5 15C20.5 12.7909 18.7091 11 16.5 11ZM24 16C24 15.1716 24.6716 14.5 25.5 14.5C26.3284 14.5 27 15.1716 27 16C27 16.8284 26.3284 17.5 25.5 17.5C24.6716 17.5 24 16.8284 24 16ZM25.5 13C23.8431 13 22.5 14.3431 22.5 16C22.5 17.6569 23.8431 19 25.5 19C27.1569 19 28.5 17.6569 28.5 16C28.5 14.3431 27.1569 13 25.5 13ZM12.75 21C11.5074 21 10.5 22.0074 10.5 23.25V23.5011L10.5 23.5022L10.5 23.5048L10.5001 23.5111L10.5004 23.5277C10.5006 23.5406 10.5012 23.5571 10.5021 23.5771C10.504 23.6169 10.5074 23.6705 10.514 23.7358C10.527 23.8661 10.5523 24.045 10.6017 24.2564C10.6999 24.6776 10.8965 25.2404 11.2918 25.8051C12.1107 26.9749 13.6718 28 16.5 28C19.3282 28 20.8893 26.9749 21.7082 25.8051C22.1035 25.2404 22.3001 24.6776 22.3983 24.2564C22.4477 24.045 22.473 23.8661 22.486 23.7358C22.4926 23.6705 22.496 23.6169 22.4979 23.5771C22.4988 23.5571 22.4994 23.5406 22.4996 23.5277L22.4999 23.5111L22.5 23.5048L22.5 23.5022L22.5 23.25C22.5 22.0074 21.4926 21 20.25 21H12.75ZM12.0005 23.5072L12 23.4947V23.25C12 22.8358 12.3358 22.5 12.75 22.5H20.25C20.6642 22.5 21 22.8358 21 23.25V23.4946L20.9995 23.5072C20.9988 23.5222 20.9972 23.5493 20.9935 23.5865C20.986 23.6612 20.9703 23.7753 20.9376 23.9155C20.8718 24.1974 20.7403 24.5721 20.4793 24.9449C19.9857 25.6501 18.9218 26.5 16.5 26.5C14.0782 26.5 13.0143 25.6501 12.5207 24.9449C12.2597 24.5721 12.1282 24.1974 12.0624 23.9155C12.0297 23.7753 12.014 23.6612 12.0065 23.5865C12.0028 23.5493 12.0012 23.5222 12.0005 23.5072ZM26.6924 21.9949L27.1679 20.7903C27.4104 20.1758 28.0886 19.8568 28.7161 20.0622L29.1472 20.2032C29.8714 20.4402 30.4726 21.0093 30.497 21.7719C30.5962 24.8829 28.0215 29.3545 25.2841 30.827C24.6109 31.1892 23.8158 30.9496 23.2485 30.4358L22.9118 30.1308C22.4231 29.6881 22.3611 28.9417 22.7702 28.4251L23.5701 27.4149C23.8603 27.0484 24.3368 26.8844 24.7909 26.9946L26.0822 27.308C27.1853 26.578 27.7765 25.5517 27.8557 24.2292L26.9395 23.2652C26.617 22.926 26.5206 22.4301 26.6924 21.9949Z" fill="#FFFDF6"/>
</svg>
