<svg width="25" height="18" viewBox="0 0 25 18" fill="none" xmlns="http://www.w3.org/2000/svg">
<rect x="0.5" y="0.599609" width="24" height="16.8" rx="2" fill="white"/>
<mask id="mask0_142_18882" style="mask-type:luminance" maskUnits="userSpaceOnUse" x="0" y="0" width="25" height="18">
<rect x="0.5" y="0.599609" width="24" height="16.8" rx="2" fill="white"/>
</mask>
<g mask="url(#mask0_142_18882)">
<path fill-rule="evenodd" clip-rule="evenodd" d="M24.5 0.599609H0.5V1.71961H24.5V0.599609ZM24.5 2.83961H0.5V3.95961H24.5V2.83961ZM0.5 5.07961H24.5V6.19961H0.5V5.07961ZM24.5 7.31961H0.5V8.43961H24.5V7.31961ZM0.5 9.55961H24.5V10.6796H0.5V9.55961ZM24.5 11.7996H0.5V12.9196H24.5V11.7996ZM0.5 14.0396H24.5V15.1596H0.5V14.0396ZM24.5 16.2796H0.5V17.3996H24.5V16.2796Z" fill="#D02F44"/>
<rect x="0.5" y="0.599609" width="10.2857" height="7.84" fill="#46467F"/>
<g filter="url(#filter0_d_142_18882)">
<path fill-rule="evenodd" clip-rule="evenodd" d="M2.78592 2.27875C2.78592 2.58803 2.53009 2.83875 2.2145 2.83875C1.8989 2.83875 1.64307 2.58803 1.64307 2.27875C1.64307 1.96947 1.8989 1.71875 2.2145 1.71875C2.53009 1.71875 2.78592 1.96947 2.78592 2.27875ZM5.07164 2.27875C5.07164 2.58803 4.8158 2.83875 4.50021 2.83875C4.18462 2.83875 3.92878 2.58803 3.92878 2.27875C3.92878 1.96947 4.18462 1.71875 4.50021 1.71875C4.8158 1.71875 5.07164 1.96947 5.07164 2.27875ZM6.78592 2.83875C7.10151 2.83875 7.35735 2.58803 7.35735 2.27875C7.35735 1.96947 7.10151 1.71875 6.78592 1.71875C6.47033 1.71875 6.2145 1.96947 6.2145 2.27875C6.2145 2.58803 6.47033 2.83875 6.78592 2.83875ZM9.64307 2.27875C9.64307 2.58803 9.38723 2.83875 9.07164 2.83875C8.75605 2.83875 8.50021 2.58803 8.50021 2.27875C8.50021 1.96947 8.75605 1.71875 9.07164 1.71875C9.38723 1.71875 9.64307 1.96947 9.64307 2.27875ZM3.35735 3.95875C3.67294 3.95875 3.92878 3.70803 3.92878 3.39875C3.92878 3.08947 3.67294 2.83875 3.35735 2.83875C3.04176 2.83875 2.78592 3.08947 2.78592 3.39875C2.78592 3.70803 3.04176 3.95875 3.35735 3.95875ZM6.2145 3.39875C6.2145 3.70803 5.95866 3.95875 5.64307 3.95875C5.32748 3.95875 5.07164 3.70803 5.07164 3.39875C5.07164 3.08947 5.32748 2.83875 5.64307 2.83875C5.95866 2.83875 6.2145 3.08947 6.2145 3.39875ZM7.92878 3.95875C8.24437 3.95875 8.50021 3.70803 8.50021 3.39875C8.50021 3.08947 8.24437 2.83875 7.92878 2.83875C7.61319 2.83875 7.35735 3.08947 7.35735 3.39875C7.35735 3.70803 7.61319 3.95875 7.92878 3.95875ZM9.64307 4.51875C9.64307 4.82803 9.38723 5.07875 9.07164 5.07875C8.75605 5.07875 8.50021 4.82803 8.50021 4.51875C8.50021 4.20947 8.75605 3.95875 9.07164 3.95875C9.38723 3.95875 9.64307 4.20947 9.64307 4.51875ZM6.78592 5.07875C7.10151 5.07875 7.35735 4.82803 7.35735 4.51875C7.35735 4.20947 7.10151 3.95875 6.78592 3.95875C6.47033 3.95875 6.2145 4.20947 6.2145 4.51875C6.2145 4.82803 6.47033 5.07875 6.78592 5.07875ZM5.07164 4.51875C5.07164 4.82803 4.8158 5.07875 4.50021 5.07875C4.18462 5.07875 3.92878 4.82803 3.92878 4.51875C3.92878 4.20947 4.18462 3.95875 4.50021 3.95875C4.8158 3.95875 5.07164 4.20947 5.07164 4.51875ZM2.2145 5.07875C2.53009 5.07875 2.78592 4.82803 2.78592 4.51875C2.78592 4.20947 2.53009 3.95875 2.2145 3.95875C1.8989 3.95875 1.64307 4.20947 1.64307 4.51875C1.64307 4.82803 1.8989 5.07875 2.2145 5.07875ZM3.92878 5.63875C3.92878 5.94803 3.67294 6.19875 3.35735 6.19875C3.04176 6.19875 2.78592 5.94803 2.78592 5.63875C2.78592 5.32947 3.04176 5.07875 3.35735 5.07875C3.67294 5.07875 3.92878 5.32947 3.92878 5.63875ZM5.64307 6.19875C5.95866 6.19875 6.2145 5.94803 6.2145 5.63875C6.2145 5.32947 5.95866 5.07875 5.64307 5.07875C5.32748 5.07875 5.07164 5.32947 5.07164 5.63875C5.07164 5.94803 5.32748 6.19875 5.64307 6.19875ZM8.50021 5.63875C8.50021 5.94803 8.24437 6.19875 7.92878 6.19875C7.61319 6.19875 7.35735 5.94803 7.35735 5.63875C7.35735 5.32947 7.61319 5.07875 7.92878 5.07875C8.24437 5.07875 8.50021 5.32947 8.50021 5.63875ZM9.07164 7.31875C9.38723 7.31875 9.64307 7.06803 9.64307 6.75875C9.64307 6.44947 9.38723 6.19875 9.07164 6.19875C8.75605 6.19875 8.50021 6.44947 8.50021 6.75875C8.50021 7.06803 8.75605 7.31875 9.07164 7.31875ZM7.35735 6.75875C7.35735 7.06803 7.10151 7.31875 6.78592 7.31875C6.47033 7.31875 6.2145 7.06803 6.2145 6.75875C6.2145 6.44947 6.47033 6.19875 6.78592 6.19875C7.10151 6.19875 7.35735 6.44947 7.35735 6.75875ZM4.50021 7.31875C4.8158 7.31875 5.07164 7.06803 5.07164 6.75875C5.07164 6.44947 4.8158 6.19875 4.50021 6.19875C4.18462 6.19875 3.92878 6.44947 3.92878 6.75875C3.92878 7.06803 4.18462 7.31875 4.50021 7.31875ZM2.78592 6.75875C2.78592 7.06803 2.53009 7.31875 2.2145 7.31875C1.8989 7.31875 1.64307 7.06803 1.64307 6.75875C1.64307 6.44947 1.8989 6.19875 2.2145 6.19875C2.53009 6.19875 2.78592 6.44947 2.78592 6.75875Z" fill="url(#paint0_linear_142_18882)"/>
</g>
</g>
<defs>
<filter id="filter0_d_142_18882" x="1.64307" y="1.71875" width="8" height="6.59961" filterUnits="userSpaceOnUse" color-interpolation-filters="sRGB">
<feFlood flood-opacity="0" result="BackgroundImageFix"/>
<feColorMatrix in="SourceAlpha" type="matrix" values="0 0 0 0 0 0 0 0 0 0 0 0 0 0 0 0 0 0 127 0" result="hardAlpha"/>
<feOffset dy="1"/>
<feColorMatrix type="matrix" values="0 0 0 0 0 0 0 0 0 0 0 0 0 0 0 0 0 0 0.06 0"/>
<feBlend mode="normal" in2="BackgroundImageFix" result="effect1_dropShadow_142_18882"/>
<feBlend mode="normal" in="SourceGraphic" in2="effect1_dropShadow_142_18882" result="shape"/>
</filter>
<linearGradient id="paint0_linear_142_18882" x1="1.64307" y1="1.71875" x2="1.64307" y2="7.31875" gradientUnits="userSpaceOnUse">
<stop stop-color="white"/>
<stop offset="1" stop-color="#F0F0F0"/>
</linearGradient>
</defs>
</svg>
