<svg width="293" height="106" viewBox="0 0 293 106" fill="none" xmlns="http://www.w3.org/2000/svg">
<g clip-path="url(#clip0_19121_2348)">
<path d="M48.28 62.2301C48.28 66.7801 46.09 71.1601 40.61 73.6001C47.52 75.7101 50.05 83.0401 50.05 86.7401C50.05 99.8801 40.19 104.1 27.97 104.1H0V45.1201H27.97C39.6 45.1201 48.28 50.3401 48.28 62.2201V62.2301ZM10.95 68.8001H27.97C34.96 68.8001 37.24 65.8501 37.24 62.4801C37.24 59.7801 35.05 55.2301 27.97 55.2301H10.95V68.8001ZM10.95 93.7401H27.97C32.52 93.7401 39.01 92.2201 39.01 86.6601C39.01 81.1001 32.52 78.5701 27.97 78.5701H10.95V93.7401Z" fill="#27499F"/>
<path d="M109.28 61.3802L90.07 87.0002H87.88L69.09 61.3002V104.19H57.97V45.2102H70.78L89.23 70.5702L107.68 45.2102H120.4V104.19H109.28V61.3902V61.3802Z" fill="#27499F"/>
<path d="M167.25 59.3601C165.23 55.9901 159.67 52.7901 153.26 52.7901C145 52.7901 141.04 56.2401 141.04 60.6301C141.04 65.7701 147.11 67.2001 154.18 68.0401C166.48 69.5601 177.94 72.7601 177.94 86.8301C177.94 99.9701 166.31 105.62 153.17 105.62C141.12 105.62 131.85 101.91 127.47 91.1301L136.74 86.3301C139.35 92.8201 146.18 95.6801 153.34 95.6801C160.5 95.6801 166.91 93.2401 166.91 86.8301C166.91 81.2701 161.1 78.9901 153.26 78.1501C141.21 76.7201 130.09 73.5201 130.09 60.2901C130.09 48.1601 142.05 43.1901 152.92 43.1001C162.1 43.1001 171.63 45.7101 176.09 54.8101L167.24 59.3601H167.25Z" fill="#27499F"/>
<path d="M238.53 96.6902C232.46 102.67 224.63 105.45 216.12 105.45C194.21 105.45 184.94 90.3702 184.86 75.0302C184.78 59.6102 194.8 43.9402 216.12 43.9402C224.12 43.9402 231.71 46.9702 237.77 52.9602L230.36 60.1202C226.48 56.3302 221.26 54.5602 216.12 54.5602C201.88 54.5602 195.73 65.1802 195.81 75.0402C195.89 84.8102 201.54 95.0102 216.12 95.0102C221.26 95.0102 227.07 92.9002 230.95 89.0302L238.53 96.7002V96.6902Z" fill="#27499F"/>
<path d="M258.66 44.0899C259.66 42.7299 260.33 41.4999 260.77 40.4099L247.6 27.2399L252.38 22.4599C251.9 19.7699 252.09 16.1099 254.31 11.4899C257.49 4.83991 261.75 0.949912 262.67 0.159912C249 1.61991 238.35 13.1899 238.35 27.2399C238.35 37.3199 243.83 46.1199 251.98 50.8299C253.59 49.5899 256.47 47.1599 258.66 44.0899Z" fill="url(#paint0_linear_19121_2348)"/>
<path d="M277.48 2.72997C274.76 5.08997 271.29 9.52997 269.91 13.81L283.34 27.24L278.69 31.89C279.54 33.75 279.68 35.25 279.68 37.12C279.68 41.24 277.5 45.17 274.62 48.04C270.94 51.72 267.65 53.69 266.21 54.46C280.97 54.13 292.83 42.07 292.83 27.23C292.83 16.45 286.57 7.12997 277.48 2.71997V2.72997Z" fill="url(#paint1_linear_19121_2348)"/>
<path d="M254.49 19.91C255.04 29.51 263.43 31.55 265.58 35.86C267.76 40.23 266.42 47.68 259.53 53.81C261.12 54.18 262.89 54.39 264.41 54.46C267.4 52.71 271.16 49.29 273.93 45.49C277.57 40.5 279.44 33.8 268.78 23.83C258.67 14.37 267.39 2.57001 269.99 0.36001C269.01 0.20001 267.67 0.0500098 266.4 0.0200098C265.58 9.76492e-06 264.8 0.0100098 264 0.0500098C262.92 1.19001 253.96 10.9 254.48 19.92L254.49 19.91Z" fill="#FED606"/>
<path d="M264.41 54.45C264.41 54.45 278.28 44.51 270.75 33.49C263.23 22.47 251.82 23.03 264 0.0399708C264 0.0399708 266.89 -0.170029 269.99 0.349971C269.99 0.349971 260.67 9.03997 265.37 19.36C267.34 23.68 277.15 29.37 276.79 38.58C276.45 47.24 266.19 53.61 264.4 54.45H264.41Z" fill="#FABB15"/>
<path d="M262.67 47.93C265.35 43.63 265.69 39.29 264.3 36.51C263.96 35.83 263.38 35.19 262.67 34.53C266.41 39.26 258.53 46.95 253.03 51.43C254.51 52.23 256.17 52.87 257.79 53.36C259.71 51.68 261.38 49.83 262.66 47.94L262.67 47.93Z" fill="#FED606"/>
<path d="M271.48 0.939951C270.85 1.55995 270.28 2.15995 269.76 2.75995C269 3.68995 268.01 5.03995 267.18 6.71995C265.11 10.88 264.95 14.93 266.7 18.77C266.98 19.39 267.52 20.0999 268.18 20.8799C264.77 13.6499 272.44 6.04995 276.35 2.20995C275.4 1.79995 273.39 1.02995 271.75 0.699951L271.49 0.939951H271.48Z" fill="#EEAB1F"/>
</g>
<defs>
<linearGradient id="paint0_linear_19121_2348" x1="250.51" y1="2.55991" x2="250.51" y2="44.6099" gradientUnits="userSpaceOnUse">
<stop stop-color="#38C6F4"/>
<stop offset="0.15" stop-color="#319FDA"/>
<stop offset="0.31" stop-color="#2A7DC3"/>
<stop offset="0.48" stop-color="#2663B1"/>
<stop offset="0.64" stop-color="#2250A4"/>
<stop offset="0.82" stop-color="#20449C"/>
<stop offset="1" stop-color="#20419A"/>
</linearGradient>
<linearGradient id="paint1_linear_19121_2348" x1="279.52" y1="53.13" x2="279.52" y2="17.01" gradientUnits="userSpaceOnUse">
<stop stop-color="#38C6F4"/>
<stop offset="0.15" stop-color="#319FDA"/>
<stop offset="0.31" stop-color="#2A7DC3"/>
<stop offset="0.48" stop-color="#2663B1"/>
<stop offset="0.64" stop-color="#2250A4"/>
<stop offset="0.82" stop-color="#20449C"/>
<stop offset="1" stop-color="#20419A"/>
</linearGradient>
<clipPath id="clip0_19121_2348">
<rect width="292.83" height="105.62" fill="white"/>
</clipPath>
</defs>
</svg>
