<svg width="81" height="80" viewBox="0 0 81 80" fill="none" xmlns="http://www.w3.org/2000/svg">
<g id="Key Multiple">
<rect x="0.5" width="80" height="80" rx="40" fill="#FFF0C7"/>
<path id="Shape" d="M40.5 19C41.1043 19 41.6957 19.055 42.2696 19.1604C41.0873 19.9469 40.0444 20.9269 39.186 22.0551C36.0454 22.6684 33.675 25.438 33.675 28.7619C33.675 29.3787 33.7563 29.9743 33.9078 30.5395C34.0434 31.045 33.8992 31.5845 33.5295 31.9546L23.925 41.5708V47.3095H27.825V43.8929C27.825 43.0842 28.4798 42.4286 29.2875 42.4286H33.675V39.9881C33.675 39.5997 33.8291 39.2273 34.1034 38.9527L37.8375 35.214C38.2728 36.124 38.8133 36.9739 39.4432 37.748L36.6 40.5946V43.8929C36.6 44.7016 35.9452 45.3571 35.1375 45.3571H30.75V48.7738C30.75 49.5825 30.0952 50.2381 29.2875 50.2381H22.4625C21.6548 50.2381 21 49.5825 21 48.7738V40.9643C21 40.5759 21.1541 40.2035 21.4284 39.9289L30.8955 30.4502C30.7998 29.901 30.75 29.3368 30.75 28.7619C30.75 23.3706 35.1152 19 40.5 19ZM49.275 21.9286C44.9672 21.9286 41.475 25.425 41.475 29.7381C41.475 32.7108 43.1334 35.2978 45.5813 36.6185C46.0548 36.8739 46.35 37.369 46.35 37.9075V53.007L50.2839 56.5876L54.4229 53.076L52.6267 51.2718C52.0578 50.7004 52.0578 49.7758 52.6267 49.2043L54.5132 47.3095L52.6267 45.4147C52.3534 45.1402 52.2 44.7685 52.2 44.381V37.9075C52.2 37.369 52.4952 36.8739 52.9687 36.6185C55.4166 35.2978 57.075 32.7108 57.075 29.7381C57.075 25.425 53.5828 21.9286 49.275 21.9286ZM38.55 29.7381C38.55 23.8076 43.3517 19 49.275 19C55.1983 19 60 23.8076 60 29.7381C60 33.5097 58.0575 36.8251 55.125 38.7394V43.7758L57.614 46.2758C58.1829 46.8472 58.1829 47.7718 57.614 48.3433L55.7275 50.2381L57.614 52.1329C57.9023 52.4225 58.0565 52.8196 58.0394 53.2282C58.0222 53.6367 57.8353 54.0194 57.5237 54.2838L51.1955 59.6528C50.6352 60.1282 49.8097 60.1138 49.2662 59.6192L43.9037 54.7382C43.5988 54.4607 43.425 54.0673 43.425 53.6548V38.7394C40.4925 36.8251 38.55 33.5097 38.55 29.7381ZM51.225 27.7857C51.225 28.864 50.352 29.7381 49.275 29.7381C48.198 29.7381 47.325 28.864 47.325 27.7857C47.325 26.7074 48.198 25.8333 49.275 25.8333C50.352 25.8333 51.225 26.7074 51.225 27.7857Z" fill="#FFC114"/>
</g>
</svg>
